<svg width="49" height="50" viewBox="0 0 49 50" fill="none" xmlns="http://www.w3.org/2000/svg">
<path d="M6.86109 18.8899V18.889V10.7408C6.86109 9.82114 7.18007 9.05195 7.8392 8.39282C8.49829 7.73373 9.26651 7.41564 10.1843 7.41675H10.1852H18.3333C19.253 7.41675 20.0222 7.73574 20.6813 8.39486C21.3404 9.05396 21.6585 9.82218 21.6574 10.7399V10.7408V18.889C21.6574 19.8087 21.3384 20.5779 20.6793 21.237C20.0202 21.8961 19.252 22.2142 18.3342 22.213H18.3333H10.1852C9.26548 22.213 8.49628 21.8941 7.83716 21.2349C7.17806 20.5758 6.85997 19.8076 6.86109 18.8899ZM6.86109 39.2603V39.2593V31.1112C6.86109 30.1915 7.18007 29.4223 7.8392 28.7632C8.49829 28.1041 9.26651 27.786 10.1843 27.7871H10.1852H18.3333C19.253 27.7871 20.0222 28.1061 20.6813 28.7652C21.3404 29.4243 21.6585 30.1925 21.6574 31.1103V31.1112V39.2593C21.6574 40.179 21.3384 40.9482 20.6793 41.6073C20.0202 42.2664 19.252 42.5845 18.3342 42.5834H18.3333H10.1852C9.26547 42.5834 8.49628 42.2644 7.83716 41.6053C7.17806 40.9462 6.85997 40.178 6.86109 39.2603ZM27.2315 18.8899V18.889V10.7408C27.2315 9.82114 27.5504 9.05195 28.2096 8.39282C28.8687 7.73373 29.6369 7.41564 30.5546 7.41675H30.5555H38.7037C39.6234 7.41675 40.3926 7.73574 41.0517 8.39486C41.7108 9.05396 42.0289 9.82218 42.0278 10.7399V10.7408V18.889C42.0278 19.8087 41.7088 20.5779 41.0496 21.237C40.3906 21.8961 39.6223 22.2142 38.7046 22.213H38.7037H30.5555C29.6358 22.213 28.8667 21.8941 28.2075 21.2349C27.5484 20.5758 27.2303 19.8076 27.2315 18.8899ZM27.2315 39.2603V39.2593V31.1112C27.2315 30.1915 27.5504 29.4223 28.2096 28.7632C28.8687 28.1041 29.6369 27.786 30.5546 27.7871H30.5555H38.7037C39.6234 27.7871 40.3926 28.1061 41.0517 28.7652C41.7108 29.4243 42.0289 30.1925 42.0278 31.1103V31.1112V39.2593C42.0278 40.179 41.7088 40.9482 41.0496 41.6073C40.3906 42.2664 39.6223 42.5845 38.7046 42.5834H38.7037H30.5555C29.6358 42.5834 28.8667 42.2644 28.2075 41.6053C27.5484 40.9462 27.2303 40.178 27.2315 39.2603Z" fill="white" stroke="black" stroke-width="1.5"/>
</svg>
